<svg xmlns="http://www.w3.org/2000/svg" viewBox="0 0 1024 1024"><path d="M404.032329 368.670096c-21.819251 0-36.114622 14.295371-36.114621 36.114621v358.136664c0 21.819251 14.295371 36.114622 36.114621 36.114622s36.114622-14.295371 36.114622-36.114622V404.032329c0-21.066863-14.295371-35.362234-36.114622-35.362233z m573.319618-215.182954H726.054372v-36.114622c0-60.943424-46.648053-107.591477-107.591477-107.591477H404.032329c-60.943424 0-107.591477 46.648053-107.591477 107.591477v36.114622H45.895665c-21.819251 0-36.114622 14.295371-36.114622 36.114621S24.076414 225.716385 45.895665 225.716385h71.476855v680.158707c0 60.943424 46.648053 107.591477 107.591477 107.591477H797.531227c60.943424 0 107.591477-46.648053 107.591477-107.591477V224.963997h71.476855c21.819251 0 36.114622-14.295371 36.114622-36.114622s-14.295371-35.362234-35.362234-35.362233zM368.670096 118.124908c0-21.819251 14.295371-36.114622 36.114621-36.114621h214.430566c21.819251 0 36.114622 14.295371 36.114621 36.114621v36.114622H368.670096v-36.114622z m464.975753 786.997796c0 21.819251-14.295371 36.114622-36.114622 36.114621H224.963997c-21.819251 0-36.114622-14.295371-36.114622-36.114621V224.963997h644.044086v680.158707zM619.215283 368.670096c-21.819251 0-36.114622 14.295371-36.114622 36.114621v358.136664c0 21.819251 14.295371 36.114622 36.114622 36.114622s36.114622-14.295371 36.114621-36.114622V404.032329c-0.752388-21.066863-15.047759-35.362234-36.114621-35.362233z" /></svg>